<?xml version="1.0" encoding="iso-8859-1"?>
<!-- Generator: Adobe Illustrator 19.0.0, SVG Export Plug-In . SVG Version: 6.00 Build 0)  -->
<svg version="1.1" id="Capa_1" xmlns="http://www.w3.org/2000/svg" xmlns:xlink="http://www.w3.org/1999/xlink" x="0px" y="0px"
	 viewBox="0 0 511.999 511.999" style="enable-background:new 0 0 511.999 511.999;" xml:space="preserve">
<g>
	<g>
		<path d="M133.724,196.149c-12.406,0-22.5,10.094-22.5,22.5c0,12.406,10.094,22.501,22.5,22.501
			c12.407,0,22.501-10.094,22.501-22.501C156.224,206.243,146.13,196.149,133.724,196.149z M133.724,226.149
			c-4.136,0-7.5-3.364-7.5-7.5c0-4.136,3.364-7.5,7.5-7.5s7.5,3.364,7.5,7.5C141.224,222.785,137.86,226.149,133.724,226.149z"/>
	</g>
</g>
<g>
	<g>
		<path d="M194.862,196.149c-12.406,0-22.5,10.094-22.5,22.5c0,12.406,10.094,22.501,22.5,22.501
			c12.406,0,22.501-10.094,22.501-22.501C217.362,206.243,207.268,196.149,194.862,196.149z M194.862,226.149
			c-4.136,0-7.5-3.364-7.5-7.5c0-4.136,3.364-7.5,7.5-7.5c4.136,0,7.5,3.364,7.5,7.5
			C202.362,222.785,198.998,226.149,194.862,226.149z"/>
	</g>
</g>
<g>
	<g>
		<path d="M255.999,196.149c-12.406,0-22.5,10.094-22.5,22.5c0,12.406,10.094,22.501,22.5,22.501s22.501-10.094,22.501-22.501
			C278.5,206.243,268.406,196.149,255.999,196.149z M255.999,226.149c-4.136,0-7.5-3.364-7.5-7.5c0-4.136,3.364-7.5,7.5-7.5
			s7.5,3.364,7.5,7.5C263.5,222.785,260.135,226.149,255.999,226.149z"/>
	</g>
</g>
<g>
	<g>
		<path d="M317.137,196.149c-12.406,0-22.501,10.094-22.501,22.5c0,12.406,10.093,22.501,22.501,22.501
			c12.406,0,22.501-10.094,22.501-22.501C339.637,206.243,329.543,196.149,317.137,196.149z M317.137,226.149
			c-4.136,0-7.5-3.364-7.5-7.5c0-4.136,3.364-7.5,7.5-7.5s7.5,3.364,7.5,7.5C324.637,222.785,321.273,226.149,317.137,226.149z"/>
	</g>
</g>
<g>
	<g>
		<path d="M400.179,213.489c-2.398-10.209-11.406-17.34-21.903-17.34c-12.406,0-22.501,10.094-22.501,22.5
			c0,9.5,6.074,17.85,14.959,21.203c5.357,2.021,8.487-1.481,9.579-4.554c1.388-3.902-0.651-8.191-4.554-9.579
			c-2.981-1.061-4.984-3.901-4.984-7.069c0-4.136,3.364-7.5,7.5-7.5c3.5,0,6.503,2.373,7.302,5.771
			c0.947,4.033,4.986,6.534,9.017,5.585C398.626,221.558,401.127,217.521,400.179,213.489z"/>
	</g>
</g>
<g>
	<g>
		<path d="M194.862,281.55c-12.406,0-22.5,10.094-22.5,22.5c0,12.406,10.094,22.501,22.5,22.501
			c12.406,0,22.501-10.094,22.501-22.501C217.362,291.644,207.268,281.55,194.862,281.55z M194.862,311.55
			c-4.136,0-7.5-3.364-7.5-7.5c0-4.136,3.364-7.5,7.5-7.5c4.136,0,7.5,3.364,7.5,7.5C202.362,308.186,198.998,311.55,194.862,311.55
			z"/>
	</g>
</g>
<g>
	<g>
		<path d="M255.999,281.55c-12.406,0-22.5,10.094-22.5,22.5c0,12.406,10.094,22.501,22.5,22.501S278.5,316.456,278.5,304.05
			C278.5,291.644,268.406,281.55,255.999,281.55z M255.999,311.55c-4.136,0-7.5-3.364-7.5-7.5c0-4.136,3.364-7.5,7.5-7.5
			s7.5,3.364,7.5,7.5C263.5,308.186,260.135,311.55,255.999,311.55z"/>
	</g>
</g>
<g>
	<g>
		<path d="M317.137,281.55c-12.406,0-22.501,10.094-22.501,22.5c0,12.406,10.094,22.501,22.501,22.501s22.501-10.094,22.501-22.501
			C339.637,291.644,329.543,281.55,317.137,281.55z M317.137,311.55c-4.136,0-7.5-3.364-7.5-7.5c0-4.136,3.364-7.5,7.5-7.5
			s7.5,3.364,7.5,7.5C324.637,308.186,321.272,311.55,317.137,311.55z"/>
	</g>
</g>
<g>
	<g>
		<path d="M164.293,238.85c-12.406,0-22.5,10.094-22.5,22.501c0,12.406,10.094,22.5,22.5,22.5c12.406,0,22.501-10.094,22.501-22.5
			C186.794,248.944,176.7,238.85,164.293,238.85z M164.293,268.85c-4.136,0-7.5-3.364-7.5-7.5c0-4.136,3.364-7.5,7.5-7.5
			c4.136,0,7.5,3.364,7.5,7.5S168.428,268.85,164.293,268.85z"/>
	</g>
</g>
<g>
	<g>
		<path d="M225.43,238.85c-12.406,0-22.501,10.094-22.501,22.501c0,12.406,10.094,22.5,22.501,22.5
			c12.407,0,22.501-10.094,22.501-22.5C247.93,248.944,237.836,238.85,225.43,238.85z M225.43,268.85c-4.136,0-7.5-3.364-7.5-7.5
			c0-4.136,3.364-7.5,7.5-7.5s7.5,3.364,7.5,7.5S229.566,268.85,225.43,268.85z"/>
	</g>
</g>
<g>
	<g>
		<path d="M286.568,238.85c-12.406,0-22.5,10.094-22.5,22.501c0,12.406,10.094,22.5,22.5,22.5s22.501-10.094,22.501-22.5
			C309.069,248.944,298.974,238.85,286.568,238.85z M286.568,268.85c-4.136,0-7.5-3.364-7.5-7.5c0-4.136,3.364-7.5,7.5-7.5
			c4.136,0,7.5,3.364,7.5,7.5S290.704,268.85,286.568,268.85z"/>
	</g>
</g>
<g>
	<g>
		<path d="M347.706,238.85c-12.406,0-22.501,10.094-22.501,22.501c0,12.406,10.094,22.5,22.501,22.5s22.5-10.094,22.5-22.5
			C370.206,248.944,360.112,238.85,347.706,238.85z M347.706,268.85c-4.136,0-7.5-3.364-7.5-7.5c0-4.136,3.364-7.5,7.5-7.5
			c4.136,0,7.5,3.364,7.5,7.5S351.842,268.85,347.706,268.85z"/>
	</g>
</g>
<g>
	<g>
		<path d="M509.486,208.221c-6.542-14.74-23.857-21.407-38.6-14.871c-2.414,1.072-7.949,3.141-15.488,3.611
			c0.22-1.412,0.418-2.792,0.597-4.137h7.94c20.676,0,37.497-16.82,37.497-37.497c0-20.677-16.82-37.497-37.497-37.497h-47.581
			c-4.143,0-7.5,3.357-7.5,7.5c0,4.143,3.357,7.5,7.5,7.5h47.581c12.404,0,22.497,10.092,22.497,22.497
			s-10.092,22.497-22.497,22.497H59.967c-12.404,0-22.497-10.092-22.497-22.497s10.092-22.497,22.497-22.497h324.888
			c4.142,0,7.5-3.357,7.5-7.5c0-4.143-3.358-7.5-7.5-7.5H59.967c-20.677,0-37.497,16.82-37.497,37.497
			c0,19.326,14.697,35.28,33.502,37.282c0.187,1.414,0.395,2.865,0.625,4.351c-7.535-0.471-13.071-2.538-15.486-3.61
			c-14.74-6.539-32.056,0.133-38.598,14.871c-6.54,14.74,0.131,32.056,14.872,38.598c2.06,0.914,33.121,11.797,56.591,5.603
			c21.667,45.536,50.501,67.019,84.688,85.14c-7.654,5.74-12.616,14.885-12.616,25.168c0,17.336,14.104,31.44,31.44,31.44h157.024
			c17.336,0,31.44-14.104,31.44-31.44c0-10.283-4.962-19.428-12.617-25.169c33.854-17.946,68.702-49.894,84.683-85.14
			c34.578,3.603,54.539-4.688,56.598-5.602C509.355,240.277,516.027,222.961,509.486,208.221z M23.467,233.107
			c-7.181-3.187-10.43-11.621-7.244-18.802c3.186-7.179,11.621-10.434,18.802-7.244c4.503,1.998,13.148,4.974,24.524,4.99
			c1.932,8.175,4.564,16.968,8.135,26.084C41.962,241.114,24.289,233.471,23.467,233.107z M331.948,331.288h-98.046
			c-4.143,0-7.5,3.358-7.5,7.5c0,4.143,3.357,7.5,7.5,7.5h100.609c9.064,0,16.439,7.375,16.439,16.441
			c0,9.064-7.375,16.439-16.439,16.439H177.488c-9.064,0-16.439-7.375-16.439-16.439c0-9.066,7.375-16.441,16.439-16.441h26.591
			c4.143,0,7.5-3.357,7.5-7.5c0-4.142-3.357-7.5-7.5-7.5h-24.028C99.155,295.301,76.822,232.535,71.138,192.824h369.72
			C435.206,232.173,412.992,295.234,331.948,331.288z M488.532,233.107c-0.823,0.364-18.498,8.009-44.221,5.027
			c3.574-9.125,6.208-17.923,8.137-26.083c11.377-0.015,20.021-2.992,24.523-4.991c7.181-3.184,15.618,0.066,18.804,7.244
			C498.961,221.486,495.712,229.92,488.532,233.107z"/>
	</g>
</g>
<g>
</g>
<g>
</g>
<g>
</g>
<g>
</g>
<g>
</g>
<g>
</g>
<g>
</g>
<g>
</g>
<g>
</g>
<g>
</g>
<g>
</g>
<g>
</g>
<g>
</g>
<g>
</g>
<g>
</g>
</svg>
